<svg style="position: absolute; width: 0; height: 0; overflow: hidden;" version="1.1" xmlns="http://www.w3.org/2000/svg">
    <defs>

        <symbol id="forum" viewBox="0 0 490 490">
            <path d="M221.576,426.71c-1.194-1.162-2.721-1.923-4.368-2.175v-0.008l-17.888-2.744l-8.072-17.24c-1.87-4.003-6.631-5.732-10.634-3.862c-1.7,0.794-3.067,2.161-3.862,3.862l-8.072,17.24l-17.888,2.744c-4.367,0.67-7.365,4.753-6.695,9.12c0.253,1.647,1.013,3.174,2.175,4.368l13.184,13.544l-3.128,19.2c-0.716,4.36,2.238,8.475,6.598,9.191c1.775,0.291,3.596-0.024,5.17-0.895L184,470.263l15.904,8.8c3.866,2.139,8.734,0.74,10.873-3.126c0.871-1.574,1.186-3.395,0.895-5.17l-3.128-19.2l13.184-13.544C224.81,434.857,224.742,429.792,221.576,426.71z M194.272,443.287c-1.769,1.815-2.574,4.362-2.168,6.864l1.128,6.936l-5.36-2.976c-2.409-1.333-5.335-1.333-7.744,0l-5.36,2.976l1.128-6.936c0.406-2.502-0.399-5.049-2.168-6.864l-5.152-5.296l6.752-1.04c2.639-0.406,4.902-2.101,6.032-4.52l2.64-5.6l2.64,5.6c1.13,2.419,3.393,4.114,6.032,4.52l6.752,1.04L194.272,443.287z"/>
            <path d="M325.576,390.918c-1.194-1.162-2.721-1.923-4.368-2.175v-0.008l-28.944-4.432l-13.024-27.736c-1.88-3.999-6.645-5.716-10.643-3.837c-1.687,0.793-3.044,2.15-3.837,3.837l-13.024,27.736l-28.944,4.432c-4.367,0.669-7.365,4.753-6.695,9.12c0.253,1.647,1.013,3.174,2.175,4.368l21.184,21.712l-5.016,30.752c-0.711,4.361,2.247,8.472,6.608,9.183c1.772,0.289,3.589-0.026,5.16-0.895L272,448.679l25.792,14.256c3.853,2.163,8.729,0.793,10.892-3.06c0.891-1.588,1.214-3.432,0.916-5.229l-5.056-30.712l21.184-21.704C328.81,399.065,328.742,394,325.576,390.918z M290.272,415.615c-1.772,1.817-2.576,4.367-2.168,6.872l3.016,18.48l-15.248-8.432c-2.409-1.333-5.335-1.333-7.744,0l-15.248,8.432l3.016-18.48c0.408-2.505-0.396-5.055-2.168-6.872L240.6,402.159l17.776-2.72c2.639-0.394,4.904-2.086,6.032-4.504L272,378.767l7.592,16.168c1.128,2.418,3.393,4.11,6.032,4.504l17.776,2.72L290.272,415.615z"/>
            <path d="M480,47.935h-36.688l24-24H480c4.418,0,8-3.582,8-8s-3.582-8-8-8H8c-4.418,0-8,3.582-8,8s3.582,8,8,8h36.688l-24,24H8c-4.418,0-8,3.582-8,8s3.582,8,8,8h24.328L32,94.471l-14.56,15.264c-13.276,13.926-12.767,35.972,1.136,49.272l32.64,31.2c1.488,1.426,3.468,2.222,5.528,2.224h0.184c0.957-0.045,1.899-0.256,2.784-0.624l89.176,128.128l-44.48,133.44c-1.396,4.197,0.875,8.732,5.072,10.128c4.197,1.396,8.732-0.875,10.128-5.072l40.696-122.104l25.144,36.144c2.523,3.627,7.509,4.523,11.136,2c3.627-2.523,4.523-7.509,2-11.136l-32-45.944l48.984-146.96c0.246-0.808,0.359-1.651,0.336-2.496h48.168c-0.026,0.924,0.113,1.844,0.408,2.72l34.792,96.368l-33.824,48.328c-2.641,3.542-1.91,8.555,1.632,11.195s8.555,1.91,11.195-1.632c0.096-0.129,0.188-0.261,0.277-0.395l27.368-39.096l62.56,173.232c1.145,3.168,4.152,5.279,7.52,5.28c0.928,0.001,1.849-0.161,2.72-0.48c4.152-1.504,6.3-6.087,4.8-10.24l-66.4-183.824l70.992-101.408l50.896,17.4l-54.8,220.624c-1.066,4.288,1.545,8.628,5.833,9.694c0.002,0.001,0.005,0.001,0.007,0.002c0.639,0.153,1.294,0.231,1.952,0.232c3.674-0.002,6.875-2.506,7.76-6.072l54.496-219.432c0.546,0.151,1.107,0.245,1.672,0.28c3.421-0.001,6.463-2.178,7.568-5.416l14.616-42.712c6.222-18.21-3.49-38.016-21.696-44.248L456,98.183V63.935h24c4.418,0,8-3.582,8-8S484.418,47.935,480,47.935z M444.688,23.935L424,44.623l-20.688-20.688H444.688z M404.688,47.935h-41.376L384,27.247L404.688,47.935z M364.688,23.935L344,44.623l-20.688-20.688H364.688z M324.688,47.935h-41.376L304,27.247L324.688,47.935z M284.688,23.935L264,44.623l-20.688-20.688H284.688z M244.688,47.935h-41.376L224,27.247L244.688,47.935zM204.688,23.935L184,44.623l-20.688-20.688H204.688z M164.688,47.935h-41.376L144,27.247L164.688,47.935z M124.688,23.935L104,44.623L83.312,23.935H124.688z M64,27.247l20.688,20.688H43.312L64,27.247z M56.488,173.095L29.6,147.439c-7.526-7.196-7.802-19.128-0.616-26.664L47.2,101.767c3.437-3.621,8.177-5.72,13.168-5.832H60.8c4.852-0.011,9.518,1.862,13.016,5.224l26.856,25.64L56.488,173.095z M155.2,301.031L71.432,180.607l33.208-34.776l83.064,52.856c0.447,0.251,0.916,0.463,1.4,0.632L155.2,301.031z M199.592,167.855l-5.344,16l-78.336-49.848l1.872-1.96c3.051-3.196,2.933-8.26-0.263-11.311c0,0-0.001-0.001-0.001-0.001l-32.64-31.2c-6.645-6.447-15.627-9.913-24.88-9.6c-4.066,0.123-8.079,0.96-11.856,2.472l0.192-18.472H232v16h-5.144c-19.24,0.026-34.83,15.617-34.856,34.856v45.144C192.013,164.178,195.354,167.663,199.592,167.855z M272,151.935h-64v-37.144c0.018-10.407,8.449-18.838,18.856-18.856h26.288c10.407,0.018,18.838,8.449,18.856,18.856V151.935z M387.28,111.519l-14.608,42.72c-0.688,2.008-0.55,4.206,0.384,6.112c0.12,0.232,0.328,0.384,0.464,0.608l-63.024,90.032l-30.024-83.152c4.209-0.221,7.513-3.69,7.528-7.904v-45.144c-0.026-19.24-15.617-34.83-34.856-34.856H248v-16h192v28.8l-8.456-2.896C413.336,83.638,393.543,93.333,387.28,111.519zM463.016,137.415l-12,35.136L390.4,151.839l12-35.104c3.354-9.868,14.072-15.15,23.941-11.796c0.02,0.007,0.04,0.013,0.059,0.02l24.88,8.504C461.13,116.842,466.382,127.561,463.016,137.415z"/>
        </symbol>

        <symbol id="artist" viewBox="-40 0 485 485">
            <path d="m392 136c-22.082031-.027344-39.972656-17.917969-40-40-.058594-52.996094-43.003906-95.9414062-96-96h-112c-52.996094.0585938-95.941406 43.003906-96 96-.027344 22.082031-17.917969 39.972656-40 40-4.417969 0-8 3.582031-8 8 .0273438 22.082031 17.917969 39.972656 40 40h15.367188c-1.660157 10.355469-6.558594 19.914062-13.992188 27.3125l-15.03125 15.03125c-3.121094 3.125-3.121094 8.1875 0 11.3125 12.484375 12.472656 31.433594 15.8125 47.433594 8.359375 6.417968 24.699219 28.703125 41.953125 54.222656 41.984375h30.671875c.433594.175781.886719.320312 1.328125.488281v15.511719h-40.296875c-35.164063.039062-63.664063 28.539062-63.703125 63.703125v104.296875c0 4.417969 3.582031 8 8 8h272c4.417969 0 8-3.582031 8-8v-104c3.199219 0 6.089844-1.90625 7.351562-4.847656l24-56c1.285157-3.003906.613282-6.488282-1.695312-8.800782l-24-24c-3.125-3.121093-8.1875-3.121093-11.3125 0l-34.34375 34.304688c-7.535156-3.046875-15.578125-4.625-23.703125-4.65625h-40.296875v-15.511719c.441406-.167969.894531-.3125 1.328125-.488281h30.671875c25.519531-.03125 47.804688-17.285156 54.222656-41.984375 16 7.453125 34.949219 4.113281 47.433594-8.359375 3.121094-3.125 3.121094-8.1875 0-11.3125l-15.03125-15.03125c-7.433594-7.398438-12.332031-16.957031-13.992188-27.3125h15.367188c22.082031-.027344 39.972656-17.917969 40-40 0-4.417969-3.582031-8-8-8zm-282.257812 185.0625 66.945312 66.9375-16.6875 16.6875-72.28125-72.28125c6.210938-5.660156 13.808594-9.574219 22.023438-11.34375zm-5.742188 142.9375h-32v-32h32zm8-48h-40v-48.296875c-.007812-7.910156 1.964844-15.699219 5.734375-22.65625l70.953125 70.953125-.101562.105469c-10.296876.628906-20.203126 4.152343-28.585938 10.160156v-2.265625c0-4.417969-3.582031-8-8-8zm138.398438 42.296875-5.710938 5.703125h-124.6875v-15.328125c7.292969-10.460937 19.246094-16.6875 32-16.671875 2.121094 0 4.15625-.84375 5.65625-2.34375l31.863281-31.863281c5.796875-5.769531 15.164063-5.769531 20.960938 0l2.207031 2.207031-10.34375 10.34375c-3.121094 3.125-3.121094 8.1875 0 11.3125l24 24c3.125 3.121094 8.1875 3.121094 11.3125 0l10.34375-10.34375 2.398438 2.398438c5.667968 5.691406 5.667968 14.894531 0 20.585937zm-31.085938-42.296875 68.6875-68.6875 12.6875 12.6875-68.6875 68.6875zm108.6875 48h-61.953125c7.425781-12.027344 5.628906-27.582031-4.34375-37.601562l-2.398437-2.398438 56-56h12.695312zm16-172.6875 14.511719 14.519531-19.785157 46.167969h-23.414062l-16-16zm-63.703125 28.6875c3.734375-.003906 7.460937.433594 11.09375 1.296875l-67.390625 67.390625-2.207031-2.207031c-8.230469-8.175781-20.363281-11.019531-31.367188-7.359375l-59.113281-59.121094h33.375l29.65625 29.65625c3.125 3.121094 8.1875 3.121094 11.3125 0l29.65625-29.65625zm-104.296875-11.3125v-15.34375c15.804688 3.542969 32.195312 3.542969 48 0v15.34375l-24 24zm24-28.6875c-52.996094-.058594-95.941406-43.003906-96-96v-48h119.199219c20.570312 10.644531 45.03125 10.644531 65.601562 0h7.199219v48c-.058594 52.996094-43.003906 95.941406-96 96zm-96-160v-16h87.601562c2.890626 5.800781 6.550782 11.183594 10.886719 16zm256 48h-24c-4.417969 0-8 3.582031-8 8-.046875 17.496094 6.90625 34.285156 19.3125 46.625l8.496094 8.496094c-10.058594 4.925781-22.125 3.003906-30.152344-4.800782-2.292969-2.289062-5.738281-2.972656-8.730469-1.730468-2.988281 1.246094-4.933593 4.171875-4.925781 7.410156-.027344 22.082031-17.917969 39.972656-40 40h-2.945312c27.085937-21.167969 42.925781-53.625 42.945312-88v-66.847656c10.359375-12.769532 16.007812-28.710938 16-45.152344 0-4.417969-3.582031-8-8-8h-64v16h55.433594c-4.175782 29.089844-30.128906 50.003906-59.445313 47.902344-29.3125-2.105469-52.011719-26.511719-51.988281-55.902344h-16c.015625 5.386719.640625 10.753906 1.855469 16h-89.855469c-4.417969 0-8 3.582031-8 8v88c.019531 34.375 15.859375 66.832031 42.945312 88h-2.945312c-22.082031-.027344-39.972656-17.917969-40-40 0-3.234375-1.949219-6.152344-4.9375-7.390625s-6.429688-.550781-8.71875 1.734375c-8.03125 7.804688-20.09375 9.722656-30.152344 4.800781l8.496094-8.496093c12.414062-12.34375 19.367188-29.144532 19.3125-46.648438 0-4.417969-3.582031-8-8-8h-24c-10.457031-.015625-19.703125-6.78125-22.878906-16.742188 27.023437-4.5 46.84375-27.863281 46.878906-55.257812.046875-44.164062 35.835938-79.953125 80-80h112c44.164062.046875 79.953125 35.835938 80 80 .035156 27.394531 19.855469 50.757812 46.878906 55.257812-3.175781 9.960938-12.421875 16.726563-22.878906 16.742188zm0 0"/>
        </symbol>

        <symbol id="playlist" viewBox="0 0 485 485">
            <path d="M265.141,304h-48c-4.418,0-8,3.582-8,8s3.582,8,8,8h48c4.418,0,8-3.582,8-8S269.559,304,265.141,304z"/>
            <path d="M265.141,336h-48c-4.418,0-8,3.582-8,8s3.582,8,8,8h48c4.418,0,8-3.582,8-8S269.559,336,265.141,336z"/>
            <path d="M265.141,368h-48c-4.418,0-8,3.582-8,8s3.582,8,8,8h48c4.418,0,8-3.582,8-8S269.559,368,265.141,368z"/>
            <path d="M470.485,77.392c-0.94-2.897-3.442-5.009-6.456-5.448l-33.752-4.904l-15.088-30.576c-1.953-3.963-6.749-5.593-10.712-3.64
			c-1.581,0.779-2.861,2.059-3.64,3.64L385.741,67.04l-33.752,4.904c-4.374,0.623-7.415,4.674-6.791,9.049
			c0.25,1.753,1.074,3.373,2.343,4.607l18.576,18.104l-42.648,42.648c-3.178,3.07-3.266,8.134-0.196,11.312
			c3.07,3.178,8.134,3.266,11.312,0.196c0.067-0.064,0.132-0.13,0.196-0.196l34.888-34.888l-3.472,20.24
			c-0.746,4.355,2.179,8.49,6.534,9.236c1.734,0.297,3.517,0.014,5.074-0.804l30.192-15.864l30.184,15.864
			c3.911,2.056,8.748,0.553,10.804-3.358c0.819-1.557,1.101-3.34,0.804-5.074l-5.768-33.6L468.453,85.6
			C470.639,83.475,471.427,80.292,470.485,77.392z M429.861,100.872c-1.889,1.835-2.754,4.483-2.312,7.08l3.744,21.784l-19.56-10.28
			c-2.331-1.226-5.117-1.226-7.448,0l-19.56,10.28l3.736-21.784c0.444-2.595-0.418-5.243-2.304-7.08l-15.824-15.424l21.872-3.2
			c2.603-0.381,4.852-2.017,6.016-4.376l9.792-19.824l9.776,19.816c1.163,2.364,3.417,4.004,6.024,4.384l21.872,3.2L429.861,100.872z"/>
            <path d="M451.197,288.272l-114.192-30.456c7.959-13.201,13.089-27.912,15.064-43.2l98.872-22.816c4.308-0.994,6.994-5.292,6-9.6
			c-0.994-4.308-5.292-6.994-9.6-6l-95.496,22.04c-0.868-3.029-2.198-5.905-3.944-8.528c-9.136-13.696-27.642-17.399-41.344-8.272
			l-1.032,0.688c-4.317,2.877-7.808,6.832-10.128,11.472l-8.56,17.128c-3.415,6.818-11.711,9.577-18.53,6.162
			c-1.113-0.558-2.146-1.263-3.07-2.098l-0.096-0.064V104c1.241,0.001,2.465-0.286,3.576-0.84l16-8
			c2.973-1.485,4.718-4.654,4.384-7.96l-8-80c-0.411-4.088-3.852-7.2-7.96-7.2h-40c-3.609-0.001-6.771,2.414-7.72,5.896L220.485,24
			h-19.344c-4.418,0-8,3.582-8,8s3.582,8,8,8h14.984l-4.368,16h-18.616c-4.418,0-8,3.582-8,8s3.582,8,8,8h14.256l-5.976,21.896
			c-1.162,4.263,1.352,8.66,5.614,9.822c0.686,0.187,1.394,0.282,2.106,0.282h8v112.952l-1.296,1.04
			c-5.345,4.275-13.143,3.407-17.417-1.937c-0.545-0.681-1.016-1.418-1.406-2.199c-2.542-5.094-3.87-10.707-3.88-16.4v-19.512
			c0-17.673-14.327-32-32-32s-32,14.327-32,32V196.8c0,1.008,0.136,2,0.16,3.008L35.085,176.24
			c-4.278-1.104-8.641,1.469-9.745,5.747c-1.104,4.278,1.469,8.641,5.747,9.745c0.037,0.009,0.073,0.019,0.11,0.028l99.816,24.952
			c2.482,14.428,7.637,28.265,15.2,40.8L97.853,269.6l-21.512-3.152l-10.856-21.992c-2.338-3.961-7.444-5.277-11.405-2.939
			c-1.212,0.716-2.224,1.727-2.939,2.939l-10.888,21.992l-24.256,3.52c-4.374,0.623-7.415,4.675-6.791,9.049
			c0.249,1.749,1.07,3.366,2.335,4.599l17.6,17.112l-4.144,24.16c-0.751,4.354,2.17,8.492,6.524,9.243
			c1.737,0.3,3.524,0.017,5.084-0.803l21.672-11.408l21.704,11.408c3.91,2.057,8.748,0.555,10.805-3.356
			c0.821-1.56,1.103-3.347,0.803-5.084l-4.144-24.16l16.632-16.216l51.008-12.752c0.339-0.13,0.668-0.285,0.984-0.464
			c3.555,4.389,7.43,8.51,11.592,12.328c-15.865,13.886-27.507,31.952-33.6,52.136l-82.576,82.584
			c-3.178,3.07-3.266,8.134-0.196,11.312c3.07,3.178,8.134,3.266,11.312,0.196c0.067-0.064,0.132-0.13,0.196-0.196l66.616-66.616
			c-0.072,1.656-0.272,3.296-0.272,4.96c0.019,31.473,13.325,61.475,36.64,82.616l-11.296,16.944
			c-2.452,3.676-1.46,8.644,2.216,11.096s8.644,1.46,11.096-2.216l10.52-15.776c37.915,25.781,87.733,25.781,125.648,0l10.52,15.776
			c2.452,3.676,7.42,4.668,11.096,2.216s4.668-7.42,2.216-11.096l-11.296-16.944c23.315-21.141,36.621-51.143,36.64-82.616
			c0-1.664-0.192-3.304-0.272-4.96l66.616,66.616c3.178,3.07,8.242,2.982,11.312-0.196c2.995-3.1,2.995-8.016,0-11.116
			l-82.584-82.584c-6.036-19.969-17.496-37.871-33.104-51.712c4.273-3.809,8.248-7.942,11.888-12.36l0.08,0.04l120,32
			c0.673,0.179,1.367,0.27,2.064,0.272c4.418-0.007,7.995-3.594,7.988-8.012C457.123,292.371,454.691,289.207,451.197,288.272z
			 M73.261,292.2c-1.889,1.839-2.751,4.49-2.304,7.088l2.12,12.336l-11.08-5.824c-2.331-1.226-5.117-1.226-7.448,0l-11.072,5.816
			l2.12-12.328c0.447-2.598-0.415-5.249-2.304-7.088l-8.96-8.728l12.408-1.8c2.609-0.376,4.865-2.013,6.032-4.376l5.536-11.2
			l5.544,11.2c1.167,2.358,3.42,3.991,6.024,4.368l12.2,1.776l0.056,0.136L73.261,292.2z M239.253,16h26.688l6.736,67.312
			L263.253,88h-43.64L239.253,16z M249.141,104v160h-16V104H249.141z M297.629,277.6c-3.57,2.603-4.354,7.607-1.751,11.177
			c0.489,0.671,1.08,1.261,1.751,1.751c42.835,31.162,52.299,91.148,21.137,133.983c-18.063,24.829-46.921,39.51-77.625,39.489
			c-52.975,0.046-95.957-42.862-96.003-95.837c-0.027-30.897,14.831-59.915,39.915-77.955c3.575-2.597,4.367-7.6,1.771-11.174
			c-0.472-0.65-1.039-1.225-1.683-1.706c-25.208-19.098-40.013-48.902-40-80.528v-18.856c0-8.837,7.163-16,16-16s16,7.163,16,16
			v19.512c0.022,8.178,1.939,16.239,5.6,23.552c6.257,12.716,21.029,18.751,34.4,14.056V272c0,4.418,3.582,8,8,8h32
			c4.418,0,8-3.582,8-8v-39.2c14.033,4.766,29.427-1.597,36-14.88l8.56-17.128c1.073-2.147,2.689-3.975,4.688-5.304l1.032-0.688
			c6.343-4.234,14.917-2.525,19.151,3.818c0.003,0.005,0.006,0.009,0.009,0.014c1.621,2.309,2.441,5.085,2.336,7.904
			C335.013,234.88,320.62,260.914,297.629,277.6z"/>
            <path d="M102.797,90.344l-72-72c-3.178-3.07-8.242-2.982-11.312,0.196c-2.994,3.1-2.994,8.015,0,11.116l72,72c3.178,3.069,8.242,2.982,11.312-0.196C105.792,98.359,105.792,93.444,102.797,90.344z"/>
            <path d="M134.797,122.344l-8-8c-3.178-3.069-8.243-2.981-11.312,0.197c-2.994,3.1-2.994,8.015,0,11.115l8,8c3.178,3.069,8.243,2.981,11.312-0.197C137.791,130.359,137.791,125.444,134.797,122.344z"/>
            <path d="M462.797,450.344l-8-8c-3.178-3.07-8.242-2.982-11.312,0.196c-2.995,3.1-2.995,8.016,0,11.116l8,8c3.178,3.07,8.242,2.982,11.312-0.196C465.792,458.36,465.792,453.444,462.797,450.344z"/>
            <path d="M38.601,442.344c-3.1-2.995-8.016-2.995-11.116,0l-8,8c-3.178,3.07-3.266,8.134-0.196,11.312c3.07,3.178,8.134,3.266,11.312,0.196c0.067-0.064,0.132-0.13,0.196-0.196l8-8C41.867,450.478,41.779,445.414,38.601,442.344z"/>
            <path d="M462.993,18.344c-3.07-3.178-8.134-3.266-11.312-0.196c-0.067,0.064-0.132,0.13-0.196,0.196l-8,8c-3.124,3.125-3.123,8.19,0.002,11.314c1.5,1.499,3.534,2.342,5.654,2.342c2.122,0,4.156-0.844,5.656-2.344l8-8C465.975,26.586,466.063,21.522,462.993,18.344z"/>
        </symbol>

        <symbol id="tuner" viewBox="2 -2 60 60">
            <path d="M52,10v8.184A2.966,2.966,0,0,0,51,18a3,3,0,1,0,3,3V12h6v4.184A2.966,2.966,0,0,0,59,16a3,3,0,1,0,3,3V10ZM51,22a1,1,0,1,1,1-1A1,1,0,0,1,51,22Zm8-2a1,1,0,1,1,1-1A1,1,0,0,1,59,20Z"/>
            <path d="M10,38V29h4V27H8v8.184A2.966,2.966,0,0,0,7,35a3,3,0,1,0,3,3ZM6,38a1,1,0,1,1,1,1A1,1,0,0,1,6,38Z"/>
            <path d="M14.5,18.6a3,3,0,0,0,4.4-3.375L16.568,6.53,20.432,5.5l-.517-1.932-5.8,1.553,2.117,7.9A3,3,0,0,0,14.5,18.6Zm.634-3.1a1,1,0,1,1,1.124,1.466.985.985,0,0,1-.758-.1,1,1,0,0,1-.366-1.366Z"/>
            <path d="M35,5a3,3,0,0,0-6,0v9.924L20.692,28.278,2.707,10.293,1.293,11.707,19.607,30.021,2.2,58H61.8L35,14.924ZM29.171,37.173a1,1,0,0,1,.708.292l5.657,5.656a1,1,0,0,1,0,1.413h0a1,1,0,0,1-1.415,0l-5.657-5.656a1,1,0,0,1,.707-1.706Zm-2.121,3.12,5.657,5.656a3,3,0,1,0,4.243-4.242l-5.657-5.656a2.994,2.994,0,0,0-3.4-.577l-2.84-2.84,3.976-6.392a2.985,2.985,0,0,0,5.952,0L51,52H13L23.963,34.377l2.509,2.509a2.962,2.962,0,0,0,.578,3.407ZM31,5a1,1,0,0,1,2,0V26a1,1,0,0,1-2,0ZM29,18.71V22.5l-5.4,8.687L22.144,29.73ZM58.2,56H5.8L21.059,31.473l1.452,1.452L9.4,54H54.6L35,22.5V18.71Z"/>
        </symbol>

        <symbol id="settings" viewBox="0 0 479 479">
            <path d="m473.9375 176.230469-24.730469-6.152344c-1.714843-9.796875-4.265625-19.433594-7.621093-28.796875l18.230468-17.695312c2.625-2.554688 3.183594-6.566407 1.351563-9.738282l-16-27.695312c-1.839844-3.175782-5.601563-4.691406-9.128907-3.679688l-24.464843 6.96875c-2.292969-2.707031-4.589844-5.234375-6.917969-7.609375-4.429688-4.742187-9.132812-9.222656-14.089844-13.417969l6.96875-24.46875c1-3.527343-.523437-7.28125-3.695312-9.113281l-27.679688-16c-3.175781-1.835937-7.191406-1.277343-9.746094 1.351563l-17.695312 18.214844c-9.363281-3.355469-19-5.90625-28.796875-7.621094l-6.152344-24.730469c-.898437-3.558594-4.097656-6.05078125-7.769531-6.046875h-32c-3.675781-.00390625-6.878906 2.5-7.769531 6.0625l-6.152344 24.730469c-9.796875 1.714843-19.433594 4.265625-28.796875 7.621093l-17.695312-18.230468c-2.554688-2.628906-6.570313-3.1875-9.746094-1.351563l-27.679688 16c-3.171875 1.832031-4.695312 5.585938-3.695312 9.113281l6.96875 24.46875c-4.910156 4.144532-9.566406 8.578126-13.945313 13.273438-2.398437 2.480469-4.761719 5.039062-7.0625 7.753906l-24.425781-6.96875c-3.527344-1.011718-7.289062.503906-9.128906 3.679688l-10.558594 18.207031-18.128906 10.472656c-3.167969 1.835938-4.683594 5.589844-3.679688 9.113281l6.96875 24.46875c-4.90625 4.144532-9.5625 8.578126-13.945312 13.273438-2.398438 2.480469-4.800782 5.039062-7.0625 7.753906l-24.464844-6.96875c-3.527344-1.011718-7.289062.503906-9.128906 3.679688l-16 27.695312c-1.832032 3.171875-1.273438 7.183594 1.351562 9.738282l18.175782 17.695312c-3.355469 9.363281-5.90625 19-7.621094 28.796875l-24.730469 6.152344c-3.558594.898437-6.05078125 4.097656-6.046875 7.769531v32c-.00390625 3.675781 2.5 6.878906 6.0625 7.769531l24.730469 6.152344c1.714843 9.796875 4.265625 19.433594 7.621093 28.796875l-18.230468 17.695312c-2.625 2.554688-3.183594 6.566407-1.351563 9.738282l16 27.695312c1.839844 3.175782 5.601563 4.691406 9.128907 3.679688l24.464843-6.96875c2.292969 2.707031 4.589844 5.234375 6.917969 7.609375 4.429688 4.742187 9.132812 9.222656 14.089844 13.417969l-6.96875 24.46875c-1 3.527343.523437 7.28125 3.695312 9.113281l27.679688 16c3.175781 1.835937 7.191406 1.277343 9.746094-1.351563l17.695312-18.214844c9.363281 3.355469 19 5.90625 28.796875 7.621094l6.152344 24.730469c.898437 3.558594 4.097656 6.050781 7.769531 6.046875h32c3.675781.003906 6.878906-2.5 7.769531-6.0625l6.152344-24.730469c9.796875-1.714843 19.433594-4.265625 28.796875-7.621093l17.695312 18.230468c2.554688 2.628906 6.570313 3.1875 9.746094 1.351563l27.679688-16c3.171875-1.832031 4.695312-5.585938 3.695312-9.113281l-6.96875-24.46875c4.910156-4.144532 9.566406-8.578126 13.945313-13.273438 2.398437-2.480469 4.761719-5.039062 7.0625-7.753906l24.464843 6.96875c3.527344 1.011718 7.289063-.503906 9.128907-3.679688l10.558593-18.207031 18.128907-10.472656c3.167969-1.835938 4.683593-5.589844 3.679687-9.113281l-6.96875-24.46875c4.910156-4.144532 9.566406-8.578126 13.945313-13.273438 2.398437-2.480469 4.761719-5.039062 7.0625-7.753906l24.464843 6.96875c3.527344 1.011718 7.289063-.503906 9.128907-3.679688l16-27.695312c1.832031-3.171875 1.273437-7.183594-1.351563-9.738282l-18.214844-17.695312c3.355469-9.363281 5.90625-19 7.621094-28.796875l24.730469-6.152344c3.558594-.898437 6.050781-4.097656 6.046875-7.769531v-32c.003906-3.675781-2.5-6.878906-6.0625-7.769531zm-143.035156 197.511719c-3.105469-.878907-6.4375.191406-8.445313 2.722656-2.980469 3.765625-6.160156 7.371094-9.519531 10.800781-5.097656 5.472656-10.597656 10.554687-16.457031 15.199219-2.539063 2.003906-3.617188 5.34375-2.738281 8.457031l6.707031 23.535156-16.898438 9.75-17.015625-17.519531c-2.257812-2.324219-5.695312-3.058594-8.703125-1.855469-11.445312 4.515625-23.378906 7.675781-35.558593 9.425781-3.210938.46875-5.816407 2.828126-6.601563 5.972657l-5.917969 23.769531h-19.507812l-5.917969-23.785156c-.785156-3.144532-3.390625-5.503906-6.601563-5.976563-12.179687-1.75-24.113281-4.917969-35.558593-9.4375-3.007813-1.203125-6.445313-.46875-8.703125 1.855469l-17.015625 17.519531-16.898438-9.75 6.707031-23.539062c.878907-3.109375-.199218-6.449219-2.738281-8.453125-5.910156-4.6875-11.457031-9.808594-16.597656-15.320313-3.308594-3.390625-6.4375-6.953125-9.378906-10.664062-2.007813-2.53125-5.339844-3.601563-8.445313-2.722657l-23.546875 6.699219-9.75-16.875 17.527344-17.015625c2.328125-2.253906 3.070313-5.691406 1.871094-8.703125-4.519531-11.445312-7.6875-23.378906-9.4375-35.558593-.472657-3.210938-2.832031-5.816407-5.976563-6.601563l-23.785156-5.917969v-19.507812l23.785156-5.917969c3.144532-.785156 5.503906-3.390625 5.976563-6.601563 1.75-12.179687 4.917969-24.113281 9.4375-35.558593 1.203125-3.007813.46875-6.445313-1.855469-8.703125l-17.542969-17.015625 9.75-16.890625 23.546875 6.699218c3.105469.878907 6.4375-.191406 8.445313-2.722656 2.980469-3.765625 6.160156-7.371094 9.519531-10.800781 5.097656-5.472656 10.597656-10.554687 16.457031-15.199219 2.539063-2.003906 3.617188-5.34375 2.738281-8.457031l-6.707031-23.542969 16.882813-9.765625 17.03125 17.542969c2.257812 2.324219 5.695312 3.058594 8.703125 1.855469 11.445312-4.515625 23.378906-7.675781 35.558593-9.425781 3.210938-.46875 5.816407-2.828126 6.601563-5.972657l5.917969-23.769531h19.496094l4.714843 18.902344v.058594l1.207031 4.855468c.796876 3.128906 3.394532 5.476563 6.59375 5.945313 12.183594 1.75 24.125 4.917969 35.574219 9.4375 3.007813 1.203125 6.445313.46875 8.703125-1.855469l17.015625-17.519531 16.898438 9.777343-6.707031 23.535157c-.878907 3.113281.199218 6.449219 2.738281 8.457031 5.910156 4.683594 11.457031 9.804688 16.597656 15.316406 3.308594 3.390625 6.4375 6.953125 9.378906 10.664063 2.007813 2.53125 5.339844 3.601562 8.445313 2.722656l23.546875-6.695313 9.75 16.886719-17.527344 17.015625c-2.324219 2.257813-3.058594 5.695313-1.855469 8.703125 4.515625 11.445313 7.675782 23.382813 9.421875 35.5625.121094.777344.347657 1.535157.683594 2.246094-11.28125 14.160156-26.359375 24.8125-43.472656 30.710937.335937-3.574218.550781-7.140624.550781-10.6875-.042969-61.84375-50.15625-111.972656-112-112.039062-7.828125.015625-15.636719.820312-23.304688 2.398438h-.128906c-28.390625 6.039062-53.308594 22.910156-69.460937 47.027343l-.082031.101563c-.078126.121094-.175782.226562-.246094.335937-28.425782 42.683594-24.234375 99.214844 10.175781 137.238281 34.410156 38.023438 90.246094 47.816407 135.542969 23.777344l3.734375 15.050782c.886719 3.566406 4.09375 6.070312 7.769531 6.070312h32c3.675781.003906 6.878906-2.5 7.769531-6.0625l6.152344-24.730469c9.796875-1.714843 19.433594-4.265625 28.796875-7.621093l16.6875 17.191406-.957031 1.664062zm36.175781-133.34375c-1.460937-6.472657-3.296875-12.855469-5.492187-19.117188l14.101562-13.6875c-.890625 11.359375-3.808594 22.46875-8.609375 32.804688zm-1.910156-74.246094c-1.839844-3.175782-5.601563-4.691406-9.128907-3.679688l-24.464843 6.96875c-2.292969-2.707031-4.589844-5.234375-6.917969-7.609375-4.429688-4.742187-9.132812-9.222656-14.089844-13.417969l6.96875-24.46875c1-3.527343-.523437-7.28125-3.695312-9.113281l-15.65625-9.054687c38.457031 7.503906 68.519531 37.585937 76 76.046875zm-125.601563-53.230469c10.335938-4.800781 21.441406-7.714844 32.800782-8.609375l-13.648438 14.085938c-6.261719-2.195313-12.644531-4.027344-19.117188-5.476563zm-54.351562 72.324219c4.890625-.78125 9.832031-1.199219 14.785156-1.246094 52.996094.058594 95.941406 43.003906 96 96-.046875 4.941406-.464844 9.871094-1.246094 14.753906-4.882812.78125-9.8125 1.199219-14.753906 1.246094-52.996094-.058594-95.941406-43.003906-96-96 .046875-4.941406.464844-9.871094 1.246094-14.753906zm-66.816406 73.472656-14.101563 13.6875c.890625-11.355469 3.808594-22.464844 8.605469-32.796875 1.464844 6.46875 3.300781 12.851563 5.496094 19.109375zm47.761718 106.449219 15.65625 9.054687c-38.472656-7.492187-68.550781-37.574218-76.039062-76.046875l9.054687 15.671875c1.839844 3.175782 5.601563 4.691406 9.128907 3.679688l24.464843-6.96875c2.292969 2.707031 4.589844 5.234375 6.917969 7.609375 4.429688 4.742187 9.132812 9.222656 14.089844 13.417969l-6.96875 24.46875c-1 3.527343.523437 7.28125 3.695312 9.113281zm41.433594 10.519531 13.6875-14.085938c6.257812 2.203126 12.644531 4.035157 19.117188 5.496094-10.335938 4.792969-21.445313 7.703125-32.804688 8.589844zm256.40625-165.933594-23.785156 5.917969c-3.144532.785156-5.503906 3.390625-5.976563 6.601563-1.75 12.179687-4.917969 24.113281-9.4375 35.558593-1.203125 3.007813-.46875 6.445313 1.855469 8.703125l17.527344 17.015625-9.75 16.890625-23.546875-6.699218c-3.105469-.878907-6.4375.191406-8.445313 2.722656-2.980468 3.765625-6.160156 7.371094-9.519531 10.800781-5.097656 5.472656-10.597656 10.554687-16.457031 15.199219-2.539063 2.003906-3.617188 5.34375-2.738282 8.457031l6.707032 23.542969-16.882813 9.765625-17.03125-17.542969c-2.257812-2.324219-5.695312-3.058594-8.703125-1.855469-11.445312 4.515625-23.378906 7.675781-35.558594 9.425781-3.210937.46875-5.816406 2.828126-6.601562 5.972657l-5.902344 23.769531h-19.496094l-4.714843-18.902344v-.058594l-1.207031-4.855468c-.796876-3.128906-3.394532-5.476563-6.59375-5.945313-12.183594-1.75-24.125-4.917969-35.574219-9.4375-3.007813-1.203125-6.445313-.46875-8.703125 1.855469l-17.015625 17.519531-16.898438-9.75 6.707031-23.539062c.878907-3.109375-.199218-6.449219-2.738281-8.453125-5.910156-4.6875-11.457031-9.808594-16.597656-15.320313-3.308594-3.390625-6.4375-6.953125-9.378906-10.664062-2.007813-2.53125-5.339844-3.601563-8.445313-2.722657l-23.546875 6.699219-9.75-16.890625 17.527344-17.015625c2.324219-2.257812 3.058594-5.695312 1.855469-8.703125-4.515625-11.445312-7.675782-23.378906-9.421875-35.558594-.121094-.78125-.347657-1.535156-.683594-2.25 11.28125-14.15625 26.359375-24.8125 43.472656-30.710937-.335937 3.589844-.550781 7.160156-.550781 10.703125.066406 61.828125 50.171875 111.933594 112 112 7.828125-.015625 15.636719-.820312 23.304688-2.398438h.128906c28.402344-6.039062 53.332031-22.917968 69.488281-47.050781v-.046875c.085937-.128906.191406-.238281.269531-.367187 28.40625-42.675781 24.210938-99.1875-10.183594-137.203125-34.394531-38.011719-90.210937-47.820313-135.503906-23.8125l-3.734375-15.050782c-.886719-3.566406-4.09375-6.070312-7.769531-6.070312h-32c-3.675781-.003906-6.878906 2.5-7.769531 6.0625l-6.152344 24.730469c-9.796875 1.714843-19.433594 4.265625-28.796875 7.621093l-16.6875-17.191406.957031-1.664062 23.546875 6.699218c3.105469.878907 6.4375-.191406 8.445313-2.722656 2.980469-3.765625 6.160156-7.371094 9.519531-10.800781 5.097656-5.472656 10.597656-10.554687 16.457031-15.199219 2.539063-2.003906 3.617188-5.34375 2.738281-8.457031l-6.707031-23.476563 16.898438-9.753906 17.015625 17.519532c2.257812 2.324218 5.695312 3.058593 8.703125 1.855468 11.445312-4.527344 23.378906-7.703125 35.558593-9.460937 3.210938-.472657 5.816407-2.832031 6.601563-5.976563l5.917969-23.785156h19.507812l5.917969 23.785156c.785156 3.144532 3.390625 5.503906 6.601563 5.976563 12.179687 1.75 24.113281 4.917969 35.558593 9.4375 3.007813 1.203125 6.445313.46875 8.703125-1.855469l17.015625-17.519531 16.898438 9.777343-6.707031 23.535157c-.878907 3.113281.199218 6.449219 2.738281 8.457031 5.910156 4.683594 11.457031 9.804688 16.597656 15.316406 3.308594 3.390625 6.4375 6.953125 9.378906 10.664063 2.007813 2.53125 5.339844 3.601562 8.445313 2.722656l23.546875-6.695313 9.75 16.886719-17.527344 17.015625c-2.324219 2.257813-3.058594 5.695313-1.855469 8.703125 4.515625 11.445313 7.675782 23.382813 9.421875 35.5625.472657 3.207031 2.832031 5.8125 5.976563 6.597657l23.785156 5.921874zm0 0"/>
        </symbol>

        <symbol id="menu" viewBox="0 0 24 24">
            <rect y="2" width="24" height="2" rx="1"/>
            <rect y="20" width="24" height="2" rx="1"/>
            <rect y="8" width="24" height="2" rx="1"/>
            <rect y="14" width="24" height="2" rx="1"/>
        </symbol>

        <symbol id="close" viewBox="0 0 95.08 95.09">
            <path d="M58.31 47.47l34.58-34.58a7.63 7.63 0 0 0 0-10.69 7.63 7.63 0 0 0-10.69 0L47.62 36.78 13 2.19a7.63 7.63 0 0 0-10.69 0 7.63 7.63 0 0 0 0 10.69l34.6 34.6L2.33 82.07a7.29 7.29 0 0 0 0 10.69 7.63 7.63 0 0 0 10.69 0l34.6-34.6 34.6 34.6a7.27 7.27 0 0 0 10.68 0 7.63 7.63 0 0 0 0-10.69z"/>
        </symbol>

        <symbol id="song-setting" viewBox="0 0 480.3 480.3">
            <path d="M254.15,234.1V13.5c0-7.5-6-13.5-13.5-13.5s-13.5,6-13.5,13.5v220.6c-31.3,6.3-55,34-55,67.2s23.7,60.9,55,67.2v98.2
			c0,7.5,6,13.5,13.5,13.5s13.5-6,13.5-13.5v-98.2c31.3-6.3,55-34,55-67.2C309.15,268.2,285.55,240.4,254.15,234.1z M240.65,342.8
			c-22.9,0-41.5-18.6-41.5-41.5s18.6-41.5,41.5-41.5s41.5,18.6,41.5,41.5S263.55,342.8,240.65,342.8z"/>
            <path d="M88.85,120.9V13.5c0-7.5-6-13.5-13.5-13.5s-13.5,6-13.5,13.5v107.4c-31.3,6.3-55,34-55,67.2s23.7,60.9,55,67.2v211.4
			c0,7.5,6,13.5,13.5,13.5s13.5-6,13.5-13.5V255.2c31.3-6.3,55-34,55-67.2S120.15,127.2,88.85,120.9z M75.35,229.6
			c-22.9,0-41.5-18.6-41.5-41.5s18.6-41.5,41.5-41.5s41.5,18.6,41.5,41.5S98.15,229.6,75.35,229.6z"/>
            <path d="M418.45,120.9V13.5c0-7.5-6-13.5-13.5-13.5s-13.5,6-13.5,13.5v107.4c-31.3,6.3-55,34-55,67.2s23.7,60.9,55,67.2v211.5
			c0,7.5,6,13.5,13.5,13.5s13.5-6,13.5-13.5V255.2c31.3-6.3,55-34,55-67.2S449.85,127.2,418.45,120.9z M404.95,229.6
			c-22.9,0-41.5-18.6-41.5-41.5s18.6-41.5,41.5-41.5s41.5,18.6,41.5,41.5S427.85,229.6,404.95,229.6z"/>
        </symbol>

    </defs>
</svg>
